<svg width="32" height="30" viewBox="0 0 32 30" fill="none" xmlns="http://www.w3.org/2000/svg">
<path d="M31.3522 26.4496L30.6906 23.9806C30.6045 23.6591 30.274 23.4681 29.9527 23.5545C29.6312 23.6407 29.4405 23.971 29.5266 24.2924L29.8163 25.3734L25.5885 22.9617V12.9385C25.5885 12.7229 25.4732 12.5236 25.2863 12.4162L16.5507 7.39379V2.62109L17.3297 3.40009C17.565 3.63538 17.9465 3.63538 18.1818 3.40009C18.4171 3.16481 18.4171 2.78329 18.1818 2.54794L16.3742 0.740376C16.1387 0.503886 15.753 0.508646 15.5221 0.740376L13.7145 2.54794C13.4792 2.78323 13.4792 3.16475 13.7145 3.40009C13.9498 3.63532 14.3313 3.63532 14.5667 3.40009L15.3457 2.62109V7.39487L6.66869 12.417C6.48258 12.5247 6.36798 12.7235 6.36798 12.9385V22.8643L2.08073 25.3006L2.37084 24.2177C2.45694 23.8962 2.26618 23.5659 1.94474 23.4798C1.62323 23.3935 1.29293 23.5843 1.20683 23.9058L0.545259 26.3755C0.461508 26.6882 0.648772 27.0363 0.989378 27.1182L3.4405 27.775C3.76454 27.8618 4.09303 27.6678 4.17847 27.349C4.26463 27.0276 4.07387 26.6972 3.75243 26.6111L2.70687 26.3309L6.96194 23.913L15.6804 29.0469C15.867 29.1568 16.0988 29.1582 16.2871 29.0496L18.4973 27.7755C18.7856 27.6093 18.8845 27.2409 18.7184 26.9526C18.5522 26.6644 18.1837 26.5654 17.8954 26.7316L15.9894 27.8304L8.1706 23.2262L15.9102 18.8282L23.799 23.3282L22.5921 24.024C22.3038 24.1902 22.2049 24.5586 22.371 24.8469C22.5373 25.1352 22.9058 25.2342 23.194 25.0679L25.0118 24.02L29.1922 26.4047L28.1452 26.6852C27.8238 26.7713 27.633 27.1017 27.7192 27.4231C27.8049 27.743 28.1342 27.9358 28.4571 27.8492L30.8719 27.2022C31.2167 27.1413 31.4447 26.7948 31.3522 26.4496ZM24.3834 22.2742L16.5506 17.8061V8.78381L24.3834 13.2871V22.2742ZM7.57302 13.286L15.3456 8.7873V17.7628L7.57302 22.1796V13.286Z" fill="#DC7000"/>
<path d="M20.5273 26.4724C20.8601 26.4724 21.1299 26.2026 21.1299 25.8699C21.1299 25.5371 20.8601 25.2673 20.5273 25.2673C20.1946 25.2673 19.9248 25.5371 19.9248 25.8699C19.9248 26.2026 20.1946 26.4724 20.5273 26.4724Z" fill="#DC7000"/>
</svg>
