<svg width="29" height="29" viewBox="0 0 29 29" fill="none" xmlns="http://www.w3.org/2000/svg">
<path d="M14.2539 0.89209C9.04307 0.89209 4.80365 5.13151 4.80365 10.3423C4.80365 16.8918 14.2632 28.0796 14.2632 28.0796C14.2632 28.0796 23.7041 16.5697 23.7041 10.3423C23.7041 5.13151 19.4649 0.89209 14.2539 0.89209ZM17.1052 13.1094C16.319 13.8954 15.2865 14.2885 14.2539 14.2885C13.2214 14.2885 12.1886 13.8954 11.4027 13.1094C9.83045 11.5373 9.83045 8.97914 11.4027 7.40687C12.1641 6.64521 13.1768 6.22571 14.2539 6.22571C15.331 6.22571 16.3436 6.64537 17.1052 7.40687C18.6775 8.97914 18.6775 11.5373 17.1052 13.1094Z" fill="white"/>
</svg>
