<svg width="13" height="13" viewBox="0 0 13 13" fill="none" xmlns="http://www.w3.org/2000/svg">
<g clip-path="url(#clip0_1_947)">
<path d="M9.481 0H3.51898C1.57858 0 0 1.57858 0 3.51898V9.4811C0 11.4214 1.57858 13 3.51898 13H9.4811C11.4214 13 13 11.4214 13 9.4811V3.51898C13 1.57858 11.4214 0 9.481 0V0ZM12.2379 9.4811C12.2379 11.0012 11.0012 12.2379 9.481 12.2379H3.51898C1.99881 12.2379 0.762114 11.0012 0.762114 9.4811V3.51898C0.762114 1.99881 1.99881 0.762114 3.51898 0.762114H9.4811C11.0012 0.762114 12.2379 1.99881 12.2379 3.51898V9.4811Z" fill="white"/>
<path d="M6.50002 2.94543C4.53998 2.94543 2.94543 4.53998 2.94543 6.50002C2.94543 8.46005 4.53998 10.0546 6.50002 10.0546C8.46005 10.0546 10.0546 8.46005 10.0546 6.50002C10.0546 4.53998 8.46005 2.94543 6.50002 2.94543ZM6.50002 9.29248C4.96032 9.29248 3.70755 8.03982 3.70755 6.50002C3.70755 4.96032 4.96032 3.70755 6.50002 3.70755C8.03982 3.70755 9.29248 4.96032 9.29248 6.50002C9.29248 8.03982 8.03982 9.29248 6.50002 9.29248Z" fill="white"/>
<path d="M10.1396 1.68298C9.56035 1.68298 9.08923 2.1542 9.08923 2.73332C9.08923 3.31254 9.56035 3.78376 10.1396 3.78376C10.7188 3.78376 11.19 3.31254 11.19 2.73332C11.19 2.1541 10.7188 1.68298 10.1396 1.68298ZM10.1396 3.02154C9.98068 3.02154 9.85135 2.89221 9.85135 2.73332C9.85135 2.57433 9.98068 2.4451 10.1396 2.4451C10.2986 2.4451 10.4279 2.57433 10.4279 2.73332C10.4279 2.89221 10.2986 3.02154 10.1396 3.02154Z" fill="white"/>
</g>
<defs>
<clipPath id="clip0_1_947">
<rect width="13" height="13" fill="white"/>
</clipPath>
</defs>
</svg>
