<svg width="34" height="30" viewBox="0 0 34 30" fill="none" xmlns="http://www.w3.org/2000/svg">
<path d="M29.7203 0.177917H4.38132C2.25276 0.180346 0.527819 1.90528 0.525391 4.03385V26.0677C0.527819 28.1963 2.25276 29.9213 4.38132 29.9237H29.7203C31.8489 29.9213 33.5738 28.1963 33.5762 26.0677V4.03385C33.5738 1.90528 31.8489 0.180346 29.7203 0.177917ZM32.4745 26.0677C32.4727 27.5881 31.2407 28.8202 29.7203 28.822H4.38132C2.86095 28.8202 1.62891 27.5881 1.62709 26.0677V4.03385C1.62891 2.51348 2.86095 1.28143 4.38132 1.27961H29.7203C31.2407 1.28143 32.4727 2.51348 32.4745 4.03385V26.0677Z" fill="#DC7000"/>
<path d="M29.7203 4.58469H4.3813C3.46863 4.58469 2.72876 5.32455 2.72876 6.23723V26.0677C2.72876 26.9804 3.46863 27.7203 4.3813 27.7203H29.7203C30.633 27.7203 31.3728 26.9804 31.3728 26.0677V6.23723C31.3728 5.32455 30.633 4.58469 29.7203 4.58469ZM17.0508 15.5267L11.0515 12.2966L17.0508 9.06638L23.0501 12.2966L17.0508 15.5267ZM23.661 13.2187V19.6779L17.6016 22.9422V16.483L23.661 13.2187ZM16.4999 16.483V22.9422L10.4406 19.6779V13.2187L16.4999 16.483ZM3.83045 6.23723C3.83045 5.933 4.07708 5.68638 4.3813 5.68638H16.4999V8.11011L9.62867 11.8118C9.62151 11.8157 9.61325 11.8173 9.60609 11.8217C9.43952 11.9218 9.338 12.1022 9.33893 12.2966V16.9138L3.83045 19.668V6.23723ZM30.2711 26.0677C30.2711 26.372 30.0245 26.6186 29.7203 26.6186H4.3813C4.07708 26.6186 3.83045 26.372 3.83045 26.0677V20.8997L9.33893 18.1454V20.0084C9.33904 20.211 9.45031 20.3971 9.62867 20.4932L16.7897 24.3491C16.9527 24.4368 17.1489 24.4368 17.3119 24.3491L24.4729 20.4932C24.6513 20.3971 24.7626 20.211 24.7627 20.0084V18.1454L30.2711 20.8997V26.0677ZM30.2711 19.668L24.7627 16.9138V12.2966C24.7626 12.1028 24.6607 11.9233 24.4944 11.8239C24.4872 11.8195 24.479 11.8179 24.4718 11.814L17.6016 8.11011V5.68638H29.7203C30.0245 5.68638 30.2711 5.933 30.2711 6.23723V19.668Z" fill="#DC7000"/>
<path d="M3.83039 3.48304C4.13461 3.48304 4.38124 3.23642 4.38124 2.9322C4.38124 2.62797 4.13461 2.38135 3.83039 2.38135C3.52616 2.38135 3.27954 2.62797 3.27954 2.9322C3.27954 3.23642 3.52616 3.48304 3.83039 3.48304Z" fill="#DC7000"/>
<path d="M6.03376 3.48304C6.33798 3.48304 6.58461 3.23642 6.58461 2.9322C6.58461 2.62797 6.33798 2.38135 6.03376 2.38135C5.72953 2.38135 5.48291 2.62797 5.48291 2.9322C5.48291 3.23642 5.72953 3.48304 6.03376 3.48304Z" fill="#DC7000"/>
<path d="M8.23713 3.48304C8.54135 3.48304 8.78797 3.23642 8.78797 2.9322C8.78797 2.62797 8.54135 2.38135 8.23713 2.38135C7.9329 2.38135 7.68628 2.62797 7.68628 2.9322C7.68628 3.23642 7.9329 3.48304 8.23713 3.48304Z" fill="#DC7000"/>
<path d="M22.0084 3.48304H29.7202C30.0245 3.48304 30.2711 3.23642 30.2711 2.9322C30.2711 2.62797 30.0245 2.38135 29.7202 2.38135H22.0084C21.7041 2.38135 21.4575 2.62797 21.4575 2.9322C21.4575 3.23642 21.7041 3.48304 22.0084 3.48304Z" fill="#DC7000"/>
</svg>
