<svg width="21" height="19" viewBox="0 0 21 19" fill="none" xmlns="http://www.w3.org/2000/svg">
<path d="M1.26222 10.974C1.34814 10.988 1.4351 10.9944 1.52211 10.9933L16.3372 10.9933L16.0141 11.1435C15.6984 11.293 15.4111 11.4964 15.1652 11.7446L11.0107 15.8991C10.4635 16.4214 10.3716 17.2616 10.7928 17.8899C11.2831 18.5595 12.2232 18.7048 12.8928 18.2146C12.9469 18.1749 12.9983 18.1317 13.0466 18.0853L20.5593 10.5726C21.1464 9.98611 21.147 9.03477 20.5605 8.44765C20.5601 8.44728 20.5597 8.44685 20.5593 8.44648L13.0466 0.933784C12.459 0.347841 11.5077 0.349155 10.9217 0.936743C10.8756 0.982992 10.8325 1.0322 10.7928 1.08404C10.3716 1.71233 10.4635 2.55258 11.0107 3.0749L15.1577 7.23693C15.3781 7.45762 15.6316 7.64267 15.909 7.78536L16.3597 7.9882L1.6048 7.9882C0.837233 7.9597 0.163813 8.49587 0.0196152 9.25034C-0.113218 10.0695 0.443098 10.8411 1.26222 10.974Z" fill="#DC7000"/>
</svg>
